<svg width="50" height="50" viewBox="0 0 50 50" fill="none" xmlns="http://www.w3.org/2000/svg">
<path fill-rule="evenodd" clip-rule="evenodd" d="M25 0C4.4125 0 0 4.4125 0 25C0 45.5875 4.4125 50 25 50C45.5875 50 50 45.5875 50 25C50 4.4125 45.5875 0 25 0ZM22.2256 18.483C22.5255 18.6432 22.7273 18.9782 22.7273 19.3182C22.7273 20.5734 23.7448 21.5909 25 21.5909C26.2552 21.5909 27.2727 20.5734 27.2727 19.3182C27.2727 18.9782 27.4745 18.6432 27.7743 18.483C28.4902 18.1003 28.9773 17.3457 28.9773 16.4773C28.9773 15.2221 27.9597 14.2045 26.7045 14.2045C26.4853 14.2045 26.2733 14.2356 26.0728 14.2935C25.416 14.4832 24.584 14.4832 23.9272 14.2935C23.7267 14.2356 23.5147 14.2045 23.2954 14.2045C22.0403 14.2045 21.0227 15.2221 21.0227 16.4773C21.0227 17.3457 21.5098 18.1003 22.2256 18.483ZM23.0781 21.4104C22.9867 21.4747 22.9141 21.566 22.8731 21.6755L22.3003 23.2029C22.2089 23.4466 22.204 23.7143 22.2863 23.9612L23.2106 26.7341C23.2664 26.9015 23.3598 27.0553 23.508 27.1511C23.7675 27.3191 24.2649 27.5568 25 27.5568C25.735 27.5568 26.2324 27.3191 26.492 27.1511C26.6401 27.0553 26.7335 26.9015 26.7893 26.7341L27.7136 23.9612C27.796 23.7143 27.791 23.4466 27.6996 23.2029L27.1268 21.6755C27.0858 21.566 27.0133 21.4747 26.9218 21.4104C26.416 21.8753 25.7411 22.1591 25 22.1591C24.2588 22.1591 23.5839 21.8753 23.0781 21.4104ZM23.8636 34.0909L23.3074 27.6945C23.6561 27.8974 24.2223 28.125 25 28.125C25.7775 28.125 26.3437 27.8975 26.6926 27.6945L26.1364 34.0909C26.1364 34.0909 25.8523 34.375 25 34.375C24.1477 34.375 23.8636 34.0909 23.8636 34.0909ZM24.1477 38.6364L23.8699 34.7477C23.8802 34.752 23.8906 34.7562 23.9012 34.7605C24.1531 34.8613 24.5098 34.9432 25 34.9432C25.4902 34.9432 25.8469 34.8613 26.0988 34.7605L26.13 34.7477L25.8522 38.6364C25.8522 38.6364 25.7102 39.2045 25 39.2045C24.2897 39.2045 24.1477 38.6364 24.1477 38.6364ZM10.5113 22.7273H21.8182C21.3891 23.4424 21.5811 23.9407 21.7706 24.4324L21.7707 24.4324L21.7707 24.4325C21.807 24.5267 21.8432 24.6207 21.875 24.7159L11.2597 27.7559C10.5818 27.9469 9.85639 27.7013 9.43386 27.138L8.76581 26.2472C8.37843 25.7307 8.31612 25.0397 8.60486 24.4622L9.00123 23.6695C9.28763 23.0967 9.87093 22.7327 10.5113 22.7273ZM9.09089 21.8558L22.017 22.1591C22.017 22.1591 22.2212 21.6484 22.3011 21.3068C22.3285 21.1897 22.3574 21.0728 22.3819 20.9757C22.4164 20.8393 22.3521 20.6993 22.223 20.6434C20.7172 19.9926 11.9569 16.2073 10.4968 15.6058C9.92963 15.3633 9.27565 15.4462 8.78685 15.8225L7.48295 16.8264C7.05516 17.1557 6.81673 17.6604 6.81816 18.1818C6.81861 18.3473 6.84323 18.5145 6.89362 18.6783L7.52561 20.7195C7.73799 21.4097 8.36935 21.8258 9.09089 21.8558ZM39.4886 22.7273H28.1818C28.6109 23.4424 28.4188 23.9407 28.2293 24.4324C28.193 24.5267 28.1568 24.6207 28.125 24.7159L38.7403 27.7559C39.4181 27.9469 40.1436 27.7013 40.5661 27.138L41.2341 26.2472C41.6215 25.7307 41.6838 25.0397 41.3951 24.4622L40.9987 23.6695C40.7123 23.0967 40.129 22.7327 39.4886 22.7273ZM40.9091 21.8558L27.983 22.1591C27.983 22.1591 27.7788 21.6484 27.6989 21.3068C27.6715 21.1898 27.6426 21.0728 27.618 20.9757C27.5835 20.8393 27.6478 20.6993 27.777 20.6434C29.2827 19.9926 38.043 16.2073 39.5031 15.6058C40.0703 15.3633 40.7243 15.4462 41.2131 15.8225L42.517 16.8264C42.9448 17.1557 43.1832 17.6604 43.1818 18.1818C43.1813 18.3473 43.1567 18.5145 43.1063 18.6783L42.4743 20.7195C42.262 21.4097 41.6306 21.8258 40.9091 21.8558Z" fill="white"/>
</svg>